<svg width="42" height="43" viewBox="0 0 42 43" fill="none" xmlns="http://www.w3.org/2000/svg">
<path d="M35.2856 29.1474C35.1111 29.0883 34.9267 29.0644 34.7429 29.077C34.5591 29.0896 34.3796 29.1385 34.2148 29.2209C34.05 29.3033 33.9032 29.4176 33.7829 29.557C33.6625 29.6965 33.571 29.8585 33.5136 30.0335C33.4562 30.2086 33.4341 30.3933 33.4485 30.5769C33.4629 30.7606 33.5136 30.9396 33.5976 31.1035C33.6817 31.2675 33.7973 31.4132 33.938 31.5321C34.0787 31.6511 34.2415 31.741 34.4171 31.7967C37.6061 32.8422 39.0335 34.0906 39.0335 34.8625C39.0335 36.8052 31.8052 39.7417 20.9108 39.7417C10.0164 39.7417 2.78811 36.8052 2.78811 34.8625C2.78811 34.0906 4.21552 32.8422 7.40454 31.7967C7.58016 31.741 7.743 31.6511 7.88366 31.5321C8.02431 31.4132 8.13999 31.2675 8.22401 31.1035C8.30802 30.9396 8.3587 30.7606 8.37313 30.5769C8.38755 30.3933 8.36543 30.2086 8.30804 30.0335C8.25065 29.8585 8.15913 29.6965 8.03878 29.557C7.91842 29.4176 7.77161 29.3033 7.60684 29.2209C7.44206 29.1385 7.26259 29.0896 7.0788 29.077C6.895 29.0644 6.71053 29.0883 6.53605 29.1474C1.13403 30.9186 0 33.2329 0 34.8625C0 39.8955 10.5194 42.5298 20.9108 42.5298C31.3022 42.5298 41.8216 39.8955 41.8216 34.8625C41.8216 33.2329 40.6876 30.9186 35.2856 29.1474Z" fill="#E3010F"/>
<path d="M20.0407 36.6485C20.2879 36.8459 20.5949 36.9534 20.9113 36.9534C21.2276 36.9534 21.5346 36.8459 21.7818 36.6485C22.2917 36.24 34.2541 26.5266 34.2541 14.0509C34.2541 10.5121 32.8484 7.11833 30.3461 4.61605C27.8438 2.11377 24.45 0.708008 20.9112 0.708008C17.3725 0.708008 13.9787 2.11377 11.4764 4.61605C8.97412 7.11833 7.56836 10.5121 7.56836 14.0509C7.56839 26.5266 19.5308 36.2401 20.0407 36.6485ZM16.1316 14.0509C16.1317 13.1056 16.412 12.1815 16.9373 11.3955C17.4625 10.6096 18.209 9.99697 19.0823 9.63525C19.9557 9.27352 20.9167 9.1789 21.8439 9.36335C22.771 9.5478 23.6226 10.003 24.2911 10.6715C24.9595 11.3399 25.4147 12.1916 25.5991 13.1187C25.7835 14.0459 25.6888 15.0069 25.3271 15.8803C24.9653 16.7536 24.3527 17.5001 23.5667 18.0253C22.7807 18.5504 21.8566 18.8308 20.9113 18.8308C19.6436 18.8307 18.4279 18.3271 17.5315 17.4307C16.6352 16.5343 16.1316 15.3186 16.1316 14.051V14.0509Z" fill="#E3010F"/>
</svg>
