<svg width="41" height="42" viewBox="0 0 41 42" fill="none" xmlns="http://www.w3.org/2000/svg">
<path d="M20.5 3.0625C30.3896 3.0625 38.4375 11.1104 38.4375 21C38.4375 30.8896 30.3896 38.9375 20.5 38.9375C10.6104 38.9375 2.5625 30.8896 2.5625 21C2.5625 11.1104 10.6104 3.0625 20.5 3.0625ZM20.5 0.5C9.17896 0.5 0 9.67896 0 21C0 32.321 9.17896 41.5 20.5 41.5C31.821 41.5 41 32.321 41 21C41 9.67896 31.821 0.5 20.5 0.5ZM31.9287 27.8542L31.8135 27.5039C31.5433 26.6981 30.6524 25.8573 29.8316 25.632L26.8012 24.8037C25.9804 24.581 24.8092 24.8813 24.2063 25.4844L23.1101 26.5805C19.1263 25.5019 16.0007 22.3764 14.9246 18.3925L16.0208 17.2964C16.6213 16.6958 16.9216 15.5247 16.6989 14.7014L15.873 11.6709C15.6503 10.8501 14.8044 9.95923 13.9987 9.68896L13.6533 9.57381C12.845 9.30355 11.6914 9.57629 11.0908 10.1794L9.44922 11.821C9.15645 12.1113 8.96875 12.9446 8.96875 12.9472C8.91366 18.1573 10.9557 23.1747 14.6393 26.8608C18.3129 30.5343 23.3128 32.5739 28.5053 32.5288C28.5329 32.5288 29.3912 32.3461 29.684 32.0533L31.3256 30.4117C31.9262 29.8136 32.1964 28.66 31.9287 27.8542Z" fill="#E3010F"/>
</svg>
